<?xml version="1.0" encoding="UTF-8"?><svg id="Layer_2" xmlns="http://www.w3.org/2000/svg" xmlns:xlink="http://www.w3.org/1999/xlink" viewBox="0 0 597.69 208.19"><defs><style>.cls-1{fill:url(#linear-gradient-8);}.cls-2{fill:url(#linear-gradient-7);}.cls-3{fill:url(#linear-gradient-5);}.cls-4{fill:url(#linear-gradient-6);}.cls-5{fill:url(#linear-gradient-9);}.cls-6{fill:url(#linear-gradient-4);}.cls-7{fill:url(#linear-gradient-3);}.cls-8{fill:url(#linear-gradient-2);}.cls-9{fill:#f6f6f6;}.cls-10{fill:url(#linear-gradient);}.cls-11{fill:url(#linear-gradient-10);}.cls-12{fill:url(#linear-gradient-11);}.cls-13{fill:url(#linear-gradient-12);}.cls-14{fill:url(#linear-gradient-13);}.cls-15{fill:url(#linear-gradient-14);}.cls-16{fill:url(#linear-gradient-15);}.cls-17{fill:url(#linear-gradient-16);}.cls-18{fill:url(#linear-gradient-17);}.cls-19{fill:url(#linear-gradient-18);}</style><linearGradient id="linear-gradient" x1="233.5" y1="161.99" x2="207" y2="207.89" gradientUnits="userSpaceOnUse"><stop offset=".5" stop-color="#eac43f"/><stop offset="1" stop-color="#f28b22"/></linearGradient><linearGradient id="linear-gradient-2" x1="282.4" y1="160.9" x2="255.73" y2="207.09" xlink:href="#linear-gradient"/><linearGradient id="linear-gradient-3" x1="330.02" y1="156.06" x2="302.15" y2="204.34" xlink:href="#linear-gradient"/><linearGradient id="linear-gradient-4" x1="384.59" y1="161.69" x2="356.43" y2="210.47" xlink:href="#linear-gradient"/><linearGradient id="linear-gradient-5" x1=".46" y1="2.86" x2="14.17" y2="26.61" gradientUnits="userSpaceOnUse"><stop offset="0" stop-color="#f2d888"/><stop offset=".5" stop-color="#eac43f"/><stop offset="1" stop-color="#f28b22"/></linearGradient><linearGradient id="linear-gradient-6" x1="21.01" y1="-1.19" x2="38.85" y2="29.7" xlink:href="#linear-gradient-5"/><linearGradient id="linear-gradient-7" x1="56.48" y1="-3.91" x2="73.15" y2="24.96" xlink:href="#linear-gradient-5"/><linearGradient id="linear-gradient-8" x1="86.87" y1="-1.55" x2="103.74" y2="27.68" xlink:href="#linear-gradient-5"/><linearGradient id="linear-gradient-9" x1="124.93" y1="-1.95" x2="139.76" y2="23.73" xlink:href="#linear-gradient-5"/><linearGradient id="linear-gradient-10" x1="163.57" y1="-3.04" x2="180.1" y2="25.6" xlink:href="#linear-gradient-5"/><linearGradient id="linear-gradient-11" x1="198.1" y1="-1.67" x2="214.75" y2="27.17" xlink:href="#linear-gradient-5"/><linearGradient id="linear-gradient-12" x1="239.34" y1="6.11" x2="249.64" y2="23.95" xlink:href="#linear-gradient-5"/><linearGradient id="linear-gradient-13" x1="272.33" y1="-.95" x2="291.23" y2="31.78" xlink:href="#linear-gradient-5"/><linearGradient id="linear-gradient-14" x1="309.65" y1="1.78" x2="328.18" y2="33.88" xlink:href="#linear-gradient-5"/><linearGradient id="linear-gradient-15" x1="347.79" y1=".83" x2="364.88" y2="30.44" xlink:href="#linear-gradient-5"/><linearGradient id="linear-gradient-16" x1="382.09" y1=".3" x2="401.33" y2="33.62" xlink:href="#linear-gradient-5"/><linearGradient id="linear-gradient-17" x1="421.52" y1=".68" x2="438.91" y2="30.8" xlink:href="#linear-gradient-5"/><linearGradient id="linear-gradient-18" x1="459.53" y1=".83" x2="476.63" y2="30.44" xlink:href="#linear-gradient-5"/><linearGradient id="divider-line" x1="190" y1="0" x2="405" y2="0" gradientUnits="userSpaceOnUse"><stop offset="0" stop-color="#eac43f" stop-opacity="0"/><stop offset=".2" stop-color="#eac43f" stop-opacity=".85"/><stop offset=".5" stop-color="#f2d888" stop-opacity="1"/><stop offset=".8" stop-color="#eac43f" stop-opacity=".85"/><stop offset="1" stop-color="#f28b22" stop-opacity="0"/></linearGradient></defs><g id="_ゲーム型教育プログラム"><path class="cls-9" d="M68.78,68.1h0s-28.79,0-28.79,0v-3.41h-8.38l3.94-10.07h-16.9l-8.06,20.58c-1.23,3.15-2.89,8.14-5.25,10.51-1.31,1.31-3.68,1.14-5.34,1.05v11.65h6.83c3.42-.17,6.92-.35,9.81-2.45,4.73-3.33,7.71-13.22,9.72-18.57h25.75l-2.89,10.68c-.88,3.24-1.84,6.57-3.15,10.95-.79,2.8-1.75,5.78-3.33,10.51-1.93,5.95-3.15,9.02-10.07,9.02h-6.39v11.82h10.77c4.47-.26,9.63-.18,13.49-2.8,4.29-2.8,6.48-8.23,7.88-12.96,2.1-7.09,2.8-9.63,8.93-32.23l1.23-4.82h11.21v-9.46h-10.99Z"/><path class="cls-9" d="M138.13,86.14v13.84h-48.29v-13.84h48.29Z"/><path class="cls-9" d="M145.48,129.58v-13.4l25.57-61.39h17.34l-26.18,62.26h34.68c2.63,0,4.55,0,4.55-1.84,0-1.58-2.45-6.3-3.24-8.06l-9.37-20.14h17.08l6.66,14.01,4.73,10.07c1.23,2.54,2.19,5.34,2.19,8.23,0,3.06-1.05,6.13-3.5,7.97-2.71,1.93-5.96,2.1-9.11,2.28h-61.39Z"/><path class="cls-9" d="M261.15,103.22v-3.94l16.2.26.09,3.77h29.77l-.09,10.95h-29.77v5.78h31.96v11.65l-79.6-.44.18-11.38h31.26v-5.96h-29.42l.09-10.95,29.34.26ZM231.73,65.56v-11.56l41.25.44v11.21h-3.68v5.6l4.99.17-.18,11.12-4.82.09-.26,14.97h-14.36v-15.15h-4.9c.26,7.62.96,14.01-8.41,15.06l-11.03-.26.09-10.25h4.12c.96-.79,1.14-1.66,1.14-2.89v-1.84l-5.52-.26.18-10.95h5.34v-5.52h-3.94ZM254.67,71.25l.18-5.6h-4.99v5.6h4.82ZM276.47,83.6l.35-27.58,12.26.35-.18,27.58-12.43-.35ZM292.32,53.04h15.68l-.18,35.55c-.09,2.98-2.01,6.3-4.55,7.71-1.31.7-2.98.96-4.47,1.05-.79.09-1.58.18-2.28.35l-13.22-.35v-11.12h7.53c.53,0,1.49-.88,1.49-1.4v-31.79Z"/><path class="cls-9" d="M342.93,52.16v5.17h15.06v10.42h-15.06v5.52h1.31l1.4-3.33h12.26l-1.4,3.33h3.59v-6.83c.79-.09,1.58-.09,2.45-.26.79-.7,1.14-1.93,1.49-3.15l2.98-10.77h14.8l-2.19,7.79h19.44l.09,11.47-2.45.26-10.86,29.25,7.36,16.64c.26.7.61,1.66,1.4,1.93l3.68.35.09,11.47-8.84-.09c-2.89-.53-4.73-1.05-6.31-3.77-1.66-2.71-2.98-5.6-4.2-8.49-.7,2.36-2.71,8.67-4.38,10.16-1.58,1.49-3.68,2.01-5.87,2.1h-8.14l-.17-11.47h3.5l.09-.17c1.75-2.01,5.17-12.61,6.39-15.85.18-.44.35-.88.44-1.31.09-.17.09-.44.26-.61,0-.09.17-.35.17-.44l-7.79-17.69-1.58-3.68h14.36l1.84,4.29,4.12-12.61h-5.87c-.96,2.71-2.45,5.08-5.43,5.25l-10.95.35v6.39h-22.33l-1.49,3.68h22.42v8.93l-10.86,7.53,13.14-.09.09,11.65h-12.7c.09,1.49.09,3.07.09,4.55,0,3.59,0,6.92-2.89,9.46-1.49,1.31-3.85,1.58-5.78,1.84l-13.84-.26v-10.68h6.66c.61-.61.79-1.23.79-2.01,0-1.05-.09-2.1-.09-3.15h-14.89l-.18-11.38h15.06v-3.42c1.58-1.05,3.24-2.19,4.82-3.33h-5.6c-1.93,1.84-2.45,2.8-5.17,3.24h-9.46l-.09-10.07c1.58-.09,2.45-.17,2.8-.61.35-.61,1.05-2.1,2.45-5.69l-4.82-.26v-10.51h10.42v-5.6h-8.84v-10.25h8.84l.09-5.17h14.27Z"/><path class="cls-9" d="M452.83,53.04v4.03h32.4l.18,10.51h-42.65l-10.16,6.22h32.05l-4.29-4.55h17.16c1.66,2.1,4.82,5.17,5.96,7.18.44.7.61,1.58.61,2.45,0,3.85-3.07,4.64-6.13,5.25l-68.83-.53-.09-9.28,10.95-6.83h-14.71v-10.51h31.26v-4.03l16.29.09ZM482.78,87.37v32.84c0,2.98-.44,6.39-2.45,8.76-1.58,1.93-3.94,2.63-6.31,2.98l-24.17.09v-9.02h16.55c.88-1.05,1.31-1.93.96-3.24l-44.66-.09v11.65h-15.41l.35-44.22,75.14.26ZM422.7,99.71l45.01.35v-3.59l-45.01-.18v3.42ZM422.7,111.27l44.92.35v-3.77l-44.92-.17v3.59Z"/><path class="cls-9" d="M517.8,63.21h-23.3v-5.24h24.7v2.87c0,1.87,1.11,2.76,2.94,2.76h2.87l-9.12,18.06c-.97,1.9-2.01,4.02-3.84,5.24-1.72,1.19-3.81,1.26-5.85,1.26h-5.1v-4.88h3.38c1.44,0,2.62-.39,3.52-1.54,1.29-1.65,2.69-4.52,3.66-6.43l6.14-12.1ZM525.56,55.92c1.18,0,1.83.61,1.83,1.87v3.09c0,1.22-.68,1.8-1.83,1.8h-3.45c-1.15,0-1.83-.58-1.83-1.8v-3.02c-.04-1.18.43-1.94,1.83-1.94h3.45ZM522.97,58.26v2.23h1.72v-2.23h-1.72Z"/><path class="cls-9" d="M531.52,87.63v-29.91h29.98v22.98c0,1.79-.36,3.66-1.62,4.99-1.58,1.72-4.02,1.83-6.21,1.94h-22.15ZM554.75,62.89h-16.44v19.57h11.63c1.29-.04,3.27.11,4.2-.97.79-.97.61-3.88.61-5.13v-13.46Z"/><path class="cls-9" d="M501.43,104.18l2.01-4.02h7.07l-.97,1.97h9.59v2.51h6.93v2.94l-7.04,16.26c-.97,2.19-1.97,4.67-4.02,6.1-1.4.97-3.02,1.18-4.7,1.29h-5.53v-4.88h2.87c.93,0,1.94-.18,2.66-.83,1.04-.97,2.76-4.6,3.41-6l1.87-4.13,3.63-8.26h-12.1l-1.79,3.66c-.93,1.94-2.12,4.74-3.81,6.1-1.15.9-2.59,1.08-3.99,1.18h-3.45v-4.74c.72.04,1.58.11,2.23-.32,1.18-.72,2.44-3.55,3.09-4.81l2.05-4.06ZM523.19,99.08v4.6h-3.09v-4.6h3.09ZM527.64,99.08v4.6h-3.02v-4.6h3.02Z"/><path class="cls-9" d="M554.39,114.55h-23.16v-4.95h30.77v4.81l-1.83,3.38c-1.29,2.33-2.51,4.7-3.81,7-.54,1.01-1.15,1.98-1.79,2.91-.61.93-1.33,1.76-2.23,2.37-1.58,1.08-3.59,1.26-5.42,1.26h-5.6v-4.78h2.55c1.29,0,2.87.04,3.91-.86,1.26-1.08,3.59-5.46,4.45-7.11l2.15-4.02ZM561.25,100.62v5.1h-28.51v-5.1h28.51Z"/><path class="cls-9" d="M567.35,130.71v-5.49l10.48-25.17h7.11l-10.74,25.53h14.22c1.08,0,1.87,0,1.87-.75,0-.65-1.01-2.58-1.33-3.3l-3.84-8.26h7l2.73,5.74,1.94,4.13c.5,1.04.9,2.19.9,3.38,0,1.26-.43,2.51-1.44,3.27-1.11.79-2.44.86-3.73.93h-25.17Z"/><path class="cls-9" d="M58.94,55.23h-10.46c-3.11,0-5.65,2.35-5.65,5.23v4.6c0,.81.66,1.46,1.46,1.46h14.65c.81,0,1.46-.66,1.46-1.46v-8.37c0-.81-.66-1.46-1.46-1.46ZM50.59,58.01h1.2v4.75h2.51v.99h-3.71v-5.74Z"/><path class="cls-9" d="M78.31,66.53h-14.65c-.81,0-1.46-.66-1.46-1.46v-8.37c0-.81.66-1.46,1.46-1.46h10.46c3.11,0,5.65,2.35,5.65,5.23v4.6c0,.81-.66,1.46-1.46,1.46ZM63.67,56.49c-.12,0-.21.09-.21.21v8.37c0,.12.09.21.21.21h14.65c.12,0,.21-.09.21-.21v-4.6c0-2.19-1.97-3.98-4.39-3.98h-10.46Z"/><path class="cls-9" d="M68.69,58.01h2.37c.43,0,.8.07,1.1.22.31.15.54.36.7.63.16.27.24.6.24.99h0c0,.39-.09.72-.28,1.02-.19.29-.44.5-.76.63l1.21,2.26h-1.37l-1.07-2.08h-.96v2.08h-1.2v-5.74ZM70.93,60.76c.3,0,.53-.08.7-.24.17-.16.25-.38.25-.66h0c0-.28-.09-.5-.26-.66s-.41-.24-.71-.24h-1.02v1.81h1.04Z"/><rect x="190" y="150" width="215" height="1.5" rx="0.75" fill="url(#divider-line)"/><path class="cls-10" d="M213.22,165.75v25.32h-9.3v-25.32h9.3ZM230.63,165.75h9.4v27.05c0,4.6-1.09,9.64-5.34,12.21-3.71,2.27-9,2.23-13.2,2.37h-15.33v-7.17h12.41c2.67,0,6.28-.05,8.75-1.19,1.48-.69,2.47-1.83,2.87-3.41.4-1.63.44-3.41.44-5.14v-24.73Z"/><path class="cls-8" d="M269.99,186.62h-19.73v-6.63h43.47v6.68h-14.29l-2.47,8.11-1.83,5.93c-.69,2.13-1.73,4.4-3.61,5.79-1.73,1.34-3.86,1.58-5.98,1.68h-7.91v-6.58h3.17c1.19,0,2.62,0,3.71-.69.64-.45,1.14-1.19,1.43-1.93.89-2.08,1.58-4.25,2.23-6.43l1.83-5.93ZM292,166.45v6.97h-39.02v-6.97h39.02Z"/><path class="cls-7" d="M331.81,173.82h-32.1v-7.22h34.02v3.96c0,2.57,1.53,3.81,4.05,3.81h3.96l-12.56,24.88c-1.34,2.62-2.77,5.54-5.29,7.22-2.37,1.63-5.24,1.73-8.06,1.73h-7.02v-6.73h4.65c1.98,0,3.61-.54,4.85-2.13,1.78-2.27,3.71-6.23,5.04-8.85l8.46-16.67ZM342.49,163.78c1.63,0,2.52.84,2.52,2.57v4.25c0,1.68-.94,2.47-2.52,2.47h-4.75c-1.58,0-2.52-.79-2.52-2.47v-4.15c-.05-1.63.59-2.67,2.52-2.67h4.75ZM338.93,166.99v3.07h2.37v-3.07h-2.37Z"/><path class="cls-6" d="M351.2,207.44v-41.19h41.29v31.65c0,2.47-.5,5.04-2.23,6.87-2.18,2.37-5.54,2.52-8.56,2.67h-30.51ZM383.19,173.37h-22.65v26.95h16.02c1.78-.05,4.5.15,5.79-1.33,1.09-1.33.84-5.34.84-7.07v-18.54Z"/></g><g id="ICTリテラシー向上のための"><path class="cls-3" d="M10.44,23.13s0-.04,0-.06V1.23H3.28v24.26c0,2.59,1.44,3.24,4.13,3.27h3.03v-5.64Z"/><path class="cls-4" d="M23.05,28.77c-2.03-.03-4.28-.23-5.5-1.85-.74-1.04-.85-2.14-.85-3.37V1.3h20.69c1.77.03,3.73.1,5.16,1.2,1.25.97,1.4,2.43,1.44,3.82v3.98h-7.12v-2.2c0-1.39-.55-1.72-2.03-1.75h-11.1v15.52c0,1.49.81,1.85,2.4,1.88h8.45c1.92-.03,2.43-.65,2.43-2.33v-6.48h7.04v8.07c0,3.85-1.48,5.67-6.05,5.77h-14.97Z"/><path class="cls-2" d="M66.57,28.77h-5.05c-2.4-.03-3.65-.91-3.65-3.11V6.38h-10.18V1.17h28.03v5.22h-10.51v16.72c0,.88.55.94,1.36.91v4.76Z"/><path class="cls-1" d="M88.99,1.23v16.59h-6.93V1.23h6.93ZM101.97,1.23h7.01v17.72c0,3.01-.81,6.32-3.98,8-2.77,1.49-6.71,1.46-9.85,1.56h-11.43v-4.7h9.26c1.99,0,4.68-.03,6.53-.78,1.11-.45,1.84-1.2,2.14-2.24.29-1.07.33-2.24.33-3.37V1.23Z"/><path class="cls-5" d="M131.33,14.9h-14.72v-4.34h32.42v4.37h-10.66l-1.84,5.31-1.36,3.89c-.52,1.39-1.29,2.88-2.69,3.79-1.29.88-2.88,1.04-4.46,1.1h-5.9v-4.31h2.36c.89,0,1.95,0,2.77-.45.48-.29.85-.78,1.07-1.26.66-1.36,1.18-2.79,1.66-4.21l1.36-3.89ZM147.74,1.68v4.57h-29.1V1.68h29.1Z"/><path class="cls-11" d="M178.13,13.96h-23.79v-4.47h31.61v4.34l-1.88,3.04c-1.33,2.11-2.58,4.24-3.91,6.32-.55.91-1.18,1.78-1.84,2.62-.63.84-1.36,1.59-2.29,2.14-1.62.97-3.69,1.13-5.57,1.13h-5.75v-4.31h2.62c1.33,0,2.95.03,4.02-.78,1.29-.97,3.69-4.92,4.57-6.41l2.21-3.63ZM185.17,1.39v4.6h-29.28V1.39h29.28Z"/><path class="cls-12" d="M205.97,1.81v4.76h-13.9V1.81h13.9ZM206.01,11.21v4.76h-13.94v-4.76h13.94ZM224.41,3.17v4.37h-.44c-1.59.1-1.84.62-2.4,2.66-1,3.66-2.1,7.26-3.13,10.72-1.92,6.54-4.32,7.68-11.8,7.81h-14.49v-4.86h12.54c1.48,0,3.06-.03,4.46-.58.7-.26,1.18-.75,1.55-1.36,1.25-2.07,3.1-9.17,3.91-11.86,1.11-3.6,1.44-6.51,6.49-6.9h3.32Z"/><path class="cls-13" d="M260.66,12.47v5.12h-32.34v-5.12h32.34Z"/><path class="cls-14" d="M288.58,29.22v-4.28c1-.03,2.07,0,3.06-.13.26-.29.41-.42.44-.81l.07-16.2h-19.55l-.07,21.45h-6.12l.11-19.53h-1.95l.07-4.44h1.95c.48-.1.74-.26,1-.65.85-1.3,1.48-2.69,2.14-4.08h7.27l-1.51,2.88h22.72l-.11,22.38c0,.75-.29,1.72-.81,2.3-.92.97-1.95,1.07-3.28,1.2l-5.42-.1ZM274.79,24.88l.15-14.35,14.68.03-.04,11.5c-.11.91-.59,1.62-1.36,2.24-.59.49-1.59.55-2.32.68l-11.1-.1ZM280.84,20.57l2.32.06c.41-.16.63-.39.7-.75l.04-4.96h-3.06v5.64Z"/><path class="cls-15" d="M319.6,24.46h16.67l.04,4.73h-34.19l-.04-4.79h10.7l-.04-24.39h6.71v4.44h15.08l.04,5.12h-15.08l.11,14.9Z"/><path class="cls-16" d="M360.13,28.83v-4.47c1.18.03,2.95.13,4.06-.26.74-.26,1.07-.78,1.22-1.43.37-1.62.48-4.37.44-6.45l-.04-4.05c0-1.33.04-3.56-.66-4.7-.55-.94-1.51-1.23-2.66-1.33l-.66-.06-.41,1.52-.88,2.95-.92,2.92-.96,2.66-1,2.69c-.85,2.27-2.47,6.54-4.17,8.29-1.33,1.36-3.58,1.52-5.46,1.59h-.81c-3.21-.13-5.46-.71-6.23-3.73-.52-1.98-.55-4.89-.55-7.16v-2.46c0-1.94.04-3.89.22-5.8.18-1.94.44-3.98,1.99-5.51,1.36-1.36,3.39-2.04,5.42-2.33,2.25-.29,4.5-.36,6.79-.39h3.17c2.25.03,4.5.16,6.75.36,1.66.16,3.43.55,4.76,1.49,1.81,1.23,2.29,3.04,2.51,4.96.18,1.75.29,3.5.29,5.25v3.66c0,2.33-.18,6.15-.81,8.2-1.07,3.27-4.46,3.53-7.78,3.6h-3.61ZM348.21,23.84c.66-.06.92-.52,1.14-1,1.25-2.37,2.14-4.92,3.02-7.42l1.4-3.89.96-2.85c.29-.91.52-1.88.77-2.82h-1.4c-1.55.03-3.54.13-4.68.45-1,.29-1.73.78-2.1,1.62-.63,1.43-.59,7.65-.59,9.49,0,1.65,0,4.02.29,5.6.07.49.29.78.85.81h.33Z"/><path class="cls-17" d="M383.29,28.73h-6.82l2.25-7.65c1.33-4.54,2.58-9.14,3.84-13.7h-5.16V3.01h6.38c.22-.84.48-1.68.7-2.53h6.53c-.22.84-.41,1.68-.66,2.53h9.37v4.37h-10.55l-5.86,21.35ZM401.98,28.99h-2.1c-2.8-.03-6.68-.06-8.78-1.49-2.25-1.55-2.25-4.21-2.18-6.51h5.61c.04.94.04,2.01,1,2.59,1.03.68,2.99.52,4.21.55h2.54l2.54-.06c1.62-.03,3.1-.13,4.72-.32l.37-.03v4.96c-.92.06-2.18.16-3.28.19l-4.65.13ZM391.14,9.91c1.66-.13,3.5-.23,5.05-.26l2.4-.03h5.35l2.1.03c1.18.03,2.4.06,3.58.13l-.04,4.83c-2.1-.06-4.2-.16-6.31-.19h-5.27l-1.55.03c-1.14.03-3.36.13-5.2.29l-.11-4.83Z"/><path class="cls-18" d="M435.25,28.86v-4.47c1.44.03,4.13.23,4.94-1.04.63-.97.55-3.69.55-4.86v-3.56c-.04-1.56,0-3.14-.18-4.7-.11-.71-.37-1.36-1.22-1.62l-.18-.03-2.25,5.28-3.58,7.68c-.81,1.62-2.29,4.24-3.69,5.51-1.59,1.46-3.91,1.72-6.08,1.78h-1c-2.69-.06-5.83-.42-7.04-2.85-.92-1.81-.85-4.44-.92-6.38v-6.71c.04-4.6,1.22-8.16,7.19-8.68l-.55-3.37h5.86l.48,3.01,2.32-.06h2.36l2.47.03c.41-.97.77-1.94,1.11-2.95h6.42l-1.36,3.5c2.4.29,4.24,1.26,5.24,3.27.85,1.75.92,4.7.92,7v4.31c0,5.67-.07,9.65-7.89,9.91h-3.91ZM423.56,24.3c1.11-.06,1.62-.45,2.21-1.26.88-1.17,1.59-2.49,2.25-3.76h-2.95c-.44-1.75-.85-3.5-1.25-5.25-.29-1.26-.66-2.92-1.18-5.51-.22.06-.44.1-.66.16-.66.29-.96.75-1.07,1.36-.15,1-.18,2.04-.18,3.01v6.12c.04,1.23,0,2.92.33,4.08.22.75.85.97,1.62,1.04h.88ZM429.97,15.1c1.07-2.36,2.14-4.76,3.13-7.13l-1.59-.03h-1.51l-1.62.03c.22,1.2.48,2.36.74,3.56l.85,3.56Z"/><path class="cls-19" d="M471.87,28.83v-4.47c1.18.03,2.95.13,4.06-.26.74-.26,1.07-.78,1.22-1.43.37-1.62.48-4.37.44-6.45l-.04-4.05c0-1.33.04-3.56-.66-4.7-.55-.94-1.51-1.23-2.66-1.33l-.66-.06-.41,1.52-.88,2.95-.92,2.92-.96,2.66-1,2.69c-.85,2.27-2.47,6.54-4.17,8.29-1.33,1.36-3.58,1.52-5.46,1.59h-.81c-3.21-.13-5.46-.71-6.23-3.73-.52-1.98-.55-4.89-.55-7.16v-2.46c0-1.94.04-3.89.22-5.8.18-1.94.44-3.98,1.99-5.51,1.36-1.36,3.39-2.04,5.42-2.33,2.25-.29,4.5-.36,6.79-.39h3.17c2.25.03,4.5.16,6.75.36,1.66.16,3.43.55,4.76,1.49,1.81,1.23,2.29,3.04,2.51,4.96.18,1.75.29,3.5.29,5.25v3.66c0,2.33-.18,6.15-.81,8.2-1.07,3.27-4.46,3.53-7.78,3.6h-3.61ZM459.96,23.84c.66-.06.92-.52,1.14-1,1.25-2.37,2.14-4.92,3.02-7.42l1.4-3.89.96-2.85c.29-.91.52-1.88.77-2.82h-1.4c-1.55.03-3.54.13-4.68.45-1,.29-1.73.78-2.1,1.62-.63,1.43-.59,7.65-.59,9.49,0,1.65,0,4.02.29,5.6.07.49.29.78.85.81h.33Z"/></g></svg>